<svg width="248" height="248" viewBox="0 0 248 248" fill="none" xmlns="http://www.w3.org/2000/svg">
<g id="Cubic Dark" clip-path="url(#clip0_7_3917)">
<path id="bg with border" d="M124 248C178.336 248 208.542 248 228.271 228.271C248 208.542 248 178.336 248 124C248 69.6639 248 39.4577 228.271 19.7288C208.542 -3.28488e-06 178.336 0 124 0C69.6639 0 39.4577 -3.28488e-06 19.7288 19.7288C-3.28488e-06 39.4577 0 69.6639 0 124C0 178.336 -3.28488e-06 208.542 19.7288 228.271C39.4577 248 69.6639 248 124 248Z" fill="url(#paint0_radial_7_3917)"/>
<g id="bg-blanco 1">
<g id="layer1">
<path id="path1" d="M39.4821 116.081L39.1839 176.16L118.047 221.928H123.861L202.128 174.52L173.803 159.016L173.654 102.664L125.352 129.796L124.905 184.807L151.739 168.259L163.516 174.073L123.414 201.056L58.2661 166.023L58.117 127.262L39.4821 116.081Z" fill="white"/>
<path id="path2" d="M68.121 157.98L68.7535 124.458L39.0348 106.521L39 80.1834L117.451 32H120.581L202.277 79.1092L202.426 157.376L183.642 147.09L183.493 92.5264L119.687 56.1509L59.906 91.0356L59.9153 95.9086L116.817 129.07L116.705 185.03L68.121 157.98Z" fill="white"/>
<path id="path3" d="M72.5778 94.7626L120.432 67.3319L169.032 94.6135L121.476 121.895L72.5778 94.7626Z" fill="white"/>
</g>
</g>
<g id="45 deg black" style="mix-blend-mode:overlay">
<path d="M124 248C178.336 248 208.542 248 228.271 228.271C248 208.542 248 178.336 248 124C248 69.6639 248 39.4577 228.271 19.7288C208.542 -3.28488e-06 178.336 0 124 0C69.6639 0 39.4577 -3.28488e-06 19.7288 19.7288C-3.28488e-06 39.4577 0 69.6639 0 124C0 178.336 -3.28488e-06 208.542 19.7288 228.271C39.4577 248 69.6639 248 124 248Z" fill="url(#paint1_linear_7_3917)"/>
</g>
<path id="white glare" d="M124 248C178.336 248 208.542 248 228.271 228.271C248 208.542 248 178.336 248 124C248 69.6639 248 39.4577 228.271 19.7288C208.542 -3.8147e-06 178.336 0 124 0C69.6639 0 39.4577 -3.8147e-06 19.7288 19.7288C-3.8147e-06 39.4577 0 69.6639 0 124C0 178.336 -3.8147e-06 208.542 19.7288 228.271C39.4577 248 69.6639 248 124 248Z" fill="url(#paint2_linear_7_3917)"/>
<g id="black shadow" style="mix-blend-mode:soft-light" filter="url(#filter0_f_7_3917)">
<mask id="path-7-inside-1_7_3917" fill="white">
<path d="M124 248C178.336 248 208.542 248 228.271 228.271C248 208.542 248 178.336 248 124C248 69.6639 248 39.4577 228.271 19.7288C208.542 -3.28488e-06 178.336 0 124 0C69.6639 0 39.4577 -3.28488e-06 19.7288 19.7288C-3.28488e-06 39.4577 0 69.6639 0 124C0 178.336 -3.28488e-06 208.542 19.7288 228.271C39.4577 248 69.6639 248 124 248Z"/>
</mask>
<path d="M124 248C178.336 248 208.542 248 228.271 228.271C248 208.542 248 178.336 248 124C248 69.6639 248 39.4577 228.271 19.7288C208.542 -3.28488e-06 178.336 0 124 0C69.6639 0 39.4577 -3.28488e-06 19.7288 19.7288C-3.28488e-06 39.4577 0 69.6639 0 124C0 178.336 -3.28488e-06 208.542 19.7288 228.271C39.4577 248 69.6639 248 124 248Z" stroke="url(#paint3_linear_7_3917)" stroke-width="6" mask="url(#path-7-inside-1_7_3917)"/>
</g>
<g id="rounder glare" style="mix-blend-mode:soft-light" filter="url(#filter1_f_7_3917)">
<mask id="path-8-inside-2_7_3917" fill="white">
<path d="M124 248C178.336 248 208.542 248 228.271 228.271C248 208.542 248 178.336 248 124C248 69.6639 248 39.4577 228.271 19.7288C208.542 -3.28488e-06 178.336 0 124 0C69.6639 0 39.4577 -3.28488e-06 19.7288 19.7288C-3.28488e-06 39.4577 0 69.6639 0 124C0 178.336 -3.28488e-06 208.542 19.7288 228.271C39.4577 248 69.6639 248 124 248Z"/>
</mask>
<path d="M124 248C178.336 248 208.542 248 228.271 228.271C248 208.542 248 178.336 248 124C248 69.6639 248 39.4577 228.271 19.7288C208.542 -3.28488e-06 178.336 0 124 0C69.6639 0 39.4577 -3.28488e-06 19.7288 19.7288C-3.28488e-06 39.4577 0 69.6639 0 124C0 178.336 -3.28488e-06 208.542 19.7288 228.271C39.4577 248 69.6639 248 124 248Z" stroke="url(#paint4_linear_7_3917)" stroke-width="8" mask="url(#path-8-inside-2_7_3917)"/>
</g>
</g>
<defs>
<filter id="filter0_f_7_3917" x="-2" y="-2" width="252" height="252" filterUnits="userSpaceOnUse" color-interpolation-filters="sRGB">
<feFlood flood-opacity="0" result="BackgroundImageFix"/>
<feBlend mode="normal" in="SourceGraphic" in2="BackgroundImageFix" result="shape"/>
<feGaussianBlur stdDeviation="1" result="effect1_foregroundBlur_7_3917"/>
</filter>
<filter id="filter1_f_7_3917" x="-6" y="-6" width="260" height="260" filterUnits="userSpaceOnUse" color-interpolation-filters="sRGB">
<feFlood flood-opacity="0" result="BackgroundImageFix"/>
<feBlend mode="normal" in="SourceGraphic" in2="BackgroundImageFix" result="shape"/>
<feGaussianBlur stdDeviation="3" result="effect1_foregroundBlur_7_3917"/>
</filter>
<radialGradient id="paint0_radial_7_3917" cx="0" cy="0" r="1" gradientUnits="userSpaceOnUse" gradientTransform="translate(124 124) rotate(90) scale(124)">
<stop stop-color="#24292E"/>
<stop offset="1"/>
</radialGradient>
<linearGradient id="paint1_linear_7_3917" x1="-2.90864" y1="4.96427e-07" x2="64.9836" y2="290.737" gradientUnits="userSpaceOnUse">
<stop stop-opacity="0"/>
<stop offset="0.605667" stop-opacity="0.0781197"/>
<stop offset="1" stop-opacity="0.26"/>
</linearGradient>
<linearGradient id="paint2_linear_7_3917" x1="-2.90864" y1="4.96427e-07" x2="64.9836" y2="290.737" gradientUnits="userSpaceOnUse">
<stop offset="0.140625" stop-color="white" stop-opacity="0.26"/>
<stop offset="0.640625" stop-color="white" stop-opacity="0.0781197"/>
<stop offset="1" stop-color="white" stop-opacity="0"/>
</linearGradient>
<linearGradient id="paint3_linear_7_3917" x1="124" y1="248" x2="124" y2="209.25" gradientUnits="userSpaceOnUse">
<stop/>
<stop offset="1" stop-opacity="0"/>
</linearGradient>
<linearGradient id="paint4_linear_7_3917" x1="124" y1="0" x2="124" y2="124" gradientUnits="userSpaceOnUse">
<stop stop-color="white"/>
<stop offset="1" stop-color="white" stop-opacity="0"/>
</linearGradient>
<clipPath id="clip0_7_3917">
<rect width="248" height="248" fill="white"/>
</clipPath>
</defs>
</svg>